<?xml version="1.0" encoding="UTF-8"?>
<svg version="1.1" xmlns="http://www.w3.org/2000/svg" width="1024" height="1024">
<path d="M0 0 C337.92 0 675.84 0 1024 0 C1024 337.92 1024 675.84 1024 1024 C686.08 1024 348.16 1024 0 1024 C0 686.08 0 348.16 0 0 Z " fill="#06050A" transform="translate(0,0)"></path>
<path d="M0 0 C0.99 0.33 1.98 0.66 3 1 C2.3002693 8.85240921 1.25482095 16.63656072 0.125 24.4375 C-0.03613281 25.56865234 -0.19726562 26.69980469 -0.36328125 27.86523438 C-1.1079144 33.04591851 -1.86606941 38.22244229 -2.71606445 43.38696289 C-4.68947599 55.41102008 -6.1733042 67.44438215 -7.4375 79.5625 C-7.54294128 80.56123138 -7.64838257 81.55996277 -7.75701904 82.58895874 C-10.72110064 110.780428 -12.87869455 139.0383958 -14.87890625 167.3125 C-14.98298798 168.78229561 -14.98298798 168.78229561 -15.08917236 170.28178406 C-15.41589054 174.91114159 -15.73750984 179.54075611 -16.04931641 184.17114258 C-16.10651352 185.0035144 -16.16371063 185.83588623 -16.22264099 186.69348145 C-16.32825135 188.23089635 -16.43136692 189.76848572 -16.53138733 191.30627441 C-16.78369204 194.94367854 -17.18142253 198.44475051 -18 202 C-18.66 202 -19.32 202 -20 202 C-22.58241735 178.30060025 -20.92515125 154.21518457 -19.18359375 130.50097656 C-19.05719089 128.77907376 -18.93227702 127.05706122 -18.80859375 125.33496094 C-17.00738389 100.30344151 -14.4429102 75.69669667 -9.75683594 51.03662109 C-8.48056522 44.28976949 -7.34469261 37.51805694 -6.1875 30.75 C-5.98068604 29.55947021 -5.77387207 28.36894043 -5.56079102 27.14233398 C-5.36928467 26.03833252 -5.17777832 24.93433105 -4.98046875 23.796875 C-4.73139771 22.36359863 -4.73139771 22.36359863 -4.47729492 20.90136719 C-3.93539596 17.60728672 -3.4622688 14.30610941 -3 11 C-6.29312827 14.2681483 -9.58275765 17.53976696 -12.86938477 20.81445312 C-13.9846729 21.92475584 -15.10086211 23.03415429 -16.21801758 24.14257812 C-21.81897216 29.70089221 -27.34746255 35.24484652 -32.47241211 41.25195312 C-35.00290406 44.14764153 -37.75110994 46.81371663 -40.5 49.5 C-44.56991671 53.52438804 -48.50719349 57.58311677 -52.2265625 61.9375 C-59.31655254 70.18312718 -66.84657861 77.96362386 -74.609375 85.57250977 C-77.57086716 88.4921166 -80.41985939 91.44401619 -83.1171875 94.6105957 C-87.43761439 99.57310958 -92.05508687 104.21710984 -96.703125 108.87109375 C-98.08078033 110.25374168 -98.08078033 110.25374168 -99.48626709 111.6643219 C-101.42088671 113.60488627 -103.35751764 115.54341719 -105.29541016 117.48071289 C-107.74872565 119.93392702 -110.19509422 122.39394254 -112.63972855 124.85580349 C-115.01045079 127.24047825 -117.38850698 129.61779467 -119.765625 131.99609375 C-120.62746399 132.86511826 -121.48930298 133.73414276 -122.3772583 134.62950134 C-149.22226769 161.37588943 -149.22226769 161.37588943 -161.9375 162.1875 C-162.618125 162.125625 -163.29875 162.06375 -164 162 C-160.70465506 153.18541038 -154.90766463 146.43909181 -148.4375 139.75 C-147.74076172 139.02055176 -147.04402344 138.29110352 -146.32617188 137.53955078 C-144.22711818 135.35008662 -142.11662552 133.17247183 -140 131 C-139.38012207 130.36352539 -138.76024414 129.72705078 -138.12158203 129.07128906 C-132.56256774 123.38833308 -126.95602321 117.81981802 -120.890625 112.671875 C-117.85898273 109.99100126 -115.0675006 107.07530129 -112.2265625 104.1953125 C-109.55366826 101.55993257 -106.74631697 99.12233511 -103.8984375 96.6796875 C-102.02029247 95.01795424 -100.25694484 93.28874475 -98.5 91.5 C-96.14966899 89.10722509 -93.735776 86.86808888 -91.1875 84.6875 C-87.97666245 81.92381971 -84.97732835 79.01380404 -82 76 C-78.45767801 72.41441301 -74.82444339 69.05108338 -70.99609375 65.77734375 C-68.01511819 63.12305044 -65.24712517 60.27011363 -62.46875 57.40625 C-59.76791229 54.77378793 -56.94873193 52.31840734 -54.10107422 49.84716797 C-50.76443811 46.91375073 -47.54101879 43.86382679 -44.3125 40.8125 C-38.90973566 35.72573812 -33.4844047 30.66647955 -28.02050781 25.64550781 C-24.86882566 22.74269384 -21.73981614 19.81736957 -18.625 16.875 C-17.86888428 16.16077881 -17.11276855 15.44655762 -16.33374023 14.71069336 C-14.8577667 13.31468227 -13.38323708 11.91714243 -11.91040039 10.51782227 C-9.95212854 8.66524008 -7.98126653 6.82794499 -6 5 C-5.42878418 4.46616699 -4.85756836 3.93233398 -4.26904297 3.38232422 C-2.68359375 1.96484375 -2.68359375 1.96484375 0 0 Z " fill="#EAEAEA" transform="translate(724,214)"></path>
<path d="M0 0 C3.90039388 0.39003939 5.63618278 2.35134504 8.25 5.125 C11.07606856 8.05265926 13.90251833 10.86094562 17 13.5 C20.79078785 16.74924673 24.26878424 20.25186032 27.7734375 23.8046875 C30.44633174 26.44006743 33.25368303 28.87766489 36.1015625 31.3203125 C38.58959026 33.52165393 40.89194077 35.88088515 43.21875 38.25 C45.08389674 40.08242487 47.01927746 41.79353135 49 43.5 C51.60647609 45.7455794 54.08934521 48.04551512 56.5 50.5 C58.75797943 52.79326036 61.05996504 54.96428028 63.5 57.0625 C67.51361713 60.52385585 71.38296596 64.12705156 75.25 67.75 C87.10051704 78.88380923 87.10051704 78.88380923 99.25 89.6875 C102.673848 92.6515337 105.83940132 95.82140754 109.015625 99.046875 C110.8677947 100.86987667 112.7717518 102.56603666 114.75 104.25 C118.86361544 107.78058333 122.65503712 111.59446024 126.43652344 115.47363281 C129.13548557 118.22023447 131.90460457 120.81936527 134.8203125 123.3359375 C166.23518211 150.54225926 166.23518211 150.54225926 168 162 C161.13911728 162.90274773 155.63840959 159.76397359 150.30761719 155.71435547 C143.82927063 150.49657388 137.69291275 144.90487077 131.91807556 138.91786194 C130.11801625 137.1180031 128.2640041 135.46350678 126.32641602 133.81420898 C121.73901543 129.82804373 117.44258853 125.58670958 113.15234375 121.28515625 C112.33681534 120.47058456 111.52128693 119.65601288 110.68104553 118.8167572 C108.96801992 117.10440807 107.25624035 115.39081158 105.5456543 113.67602539 C102.94496448 111.06997985 100.33898044 108.46931478 97.73242188 105.86914062 C96.05957514 104.19563301 94.38703866 102.52181518 92.71484375 100.84765625 C91.94486557 100.0797023 91.17488739 99.31174835 90.38157654 98.52052307 C86.30161669 94.4230523 82.40691241 90.23383463 78.63209534 85.85447693 C76.16506664 83.05130257 73.53594569 80.43020217 70.875 77.8125 C70.32440918 77.2656958 69.77381836 76.7188916 69.20654297 76.15551758 C67.47349183 74.43450493 65.73720227 72.71682168 64 71 C51.0703102 58.22199929 51.0703102 58.22199929 45.7578125 51.98046875 C41.88651713 47.6188093 37.65128811 43.59257116 33.5 39.5 C27.99838948 34.07620575 22.59062757 28.66065906 17.56396484 22.79101562 C15.18639288 20.06827634 12.64040817 17.53155574 10.0625 15 C9.56943359 14.51144531 9.07636719 14.02289063 8.56835938 13.51953125 C7.38126771 12.34396475 6.19099502 11.17161174 5 10 C5.49083052 12.55660113 5.98187399 15.11316111 6.47314453 17.66967773 C6.91458128 19.96729816 7.35565112 22.26498911 7.79638672 24.56274414 C8.910499 30.36409148 10.02943264 36.1642951 11.16921997 41.96064758 C11.69499162 44.63481268 12.21829866 47.30945836 12.74163818 49.98410034 C13.11063646 51.86431134 13.48322431 53.74381677 13.85595703 55.62329102 C17.06156437 72.02053131 19.42526677 88.37746312 20.88037109 105.02368164 C21.12400262 107.80112966 21.37963757 110.57728372 21.63671875 113.35351562 C23.59064952 134.87225301 24.14770635 156.27438719 24.0625 177.875 C24.05746603 180.13541566 24.05290653 182.39583242 24.04882812 184.65625 C24.03799332 190.10419154 24.021411 195.55209027 24 201 C23.34 201.33 22.68 201.66 22 202 C20.79216371 198.37649114 20.44608334 194.81301419 20.05859375 191.03515625 C19.97266464 190.20597183 19.88673553 189.37678741 19.79820251 188.5224762 C18.72416129 177.75099535 18.03325858 166.95041778 17.3117981 156.15078735 C14.43700606 113.33084977 10.95489881 70.7927185 3.05541992 28.5625 C1.79207856 21.75418584 0.65341829 14.95208641 -0.23828125 8.0859375 C-0.33126999 7.39142487 -0.42425873 6.69691223 -0.52006531 5.98135376 C-0.72473029 4.32581649 -0.86854604 2.66295257 -1 1 C-0.67 0.67 -0.34 0.34 0 0 Z " fill="#EBEBEB" transform="translate(298,214)"></path>
<path d="M0 0 C0.99 0.495 0.99 0.495 2 1 C1.34257813 1.98613281 0.68515625 2.97226562 0.0078125 3.98828125 C-0.44070068 4.66117188 -0.88921387 5.3340625 -1.35131836 6.02734375 C-2.39074663 7.58623633 -3.43064294 9.14481691 -4.47094727 10.703125 C-7.39816589 15.0895715 -10.31938245 19.4798036 -13.22714233 23.87918091 C-36.29212021 58.77032305 -36.29212021 58.77032305 -49 74 C-49.82757812 75.0003125 -50.65515625 76.000625 -51.5078125 77.03125 C-57.65503797 84.41102971 -64.07828173 91.49703688 -70.62597656 98.52148438 C-75.24071966 103.48717098 -79.76116824 108.53092253 -84.15234375 113.6953125 C-84.69632813 114.33476807 -85.2403125 114.97422363 -85.80078125 115.63305664 C-86.87572855 116.9002566 -87.94745283 118.17019904 -89.015625 119.44311523 C-92.78223295 123.89111647 -92.78223295 123.89111647 -95 125 C-93.75166855 120.81831826 -92.23317406 117.48174187 -89.796875 113.8671875 C-89.15347168 112.90643311 -88.51006836 111.94567871 -87.84716797 110.95581055 C-87.15510254 109.93914307 -86.46303711 108.92247559 -85.75 107.875 C-85.03344238 106.8125708 -84.31688477 105.7501416 -83.57861328 104.65551758 C-55.61726367 63.32470394 -55.61726367 63.32470394 -40.44140625 45.83984375 C-38.23808544 43.27694098 -36.13939505 40.66541973 -34.0625 38 C-29.91706235 32.76275984 -25.3827353 27.92145923 -20.828125 23.04296875 C-17.46373772 19.43747446 -14.21949431 15.73493059 -11 12 C-3.62745098 3.48235294 -3.62745098 3.48235294 0 0 Z " fill="#E8E9E9" transform="translate(613,553)"></path>
<path d="M0 0 C9.71506472 7.85473318 17.48624017 17.61601725 25.46826172 27.16796875 C26.51476845 28.41964018 27.56336794 29.66956408 28.61376953 30.91796875 C37.50824703 41.49883711 45.93247143 52.3715866 54.14306641 63.49023438 C55.96546703 65.95332646 57.79960581 68.4072437 59.63671875 70.859375 C66.9128274 80.60363043 73.82091391 90.52816106 80.48388672 100.70019531 C82.10013986 103.15190297 83.73695671 105.58887115 85.37890625 108.0234375 C85.93239746 108.84577881 86.48588867 109.66812012 87.05615234 110.51538086 C88.12062629 112.0958427 89.18726026 113.67485248 90.25634766 115.25219727 C90.97056885 116.31651978 90.97056885 116.31651978 91.69921875 117.40234375 C92.12033936 118.02616943 92.54145996 118.64999512 92.9753418 119.29272461 C94 121 94 121 95 124 C91.42898191 122.51407301 89.45457244 120.53257153 86.9375 117.625 C83.50017863 113.70792113 80.03177267 109.83148308 76.5 106 C74.66567214 104.00091025 72.83297361 102.00033207 71 100 C69.82050781 98.71416016 69.82050781 98.71416016 68.6171875 97.40234375 C63.19160492 91.43798381 58.03850384 85.29397262 53 79 C52.58524414 78.4848584 52.17048828 77.9697168 51.74316406 77.43896484 C34.44115974 55.91235525 18.84061299 32.95566154 4.375 9.4375 C3.9197998 8.70015625 3.46459961 7.9628125 2.99560547 7.203125 C0 2.2531353 0 2.2531353 0 0 Z " fill="#E9E9E9" transform="translate(413,554)"></path>
<path d="M0 0 C3.97357487 2.92715302 6.94770383 6.19148191 9.875 10.125 C10.52734619 10.9914917 10.52734619 10.9914917 11.19287109 11.87548828 C12.46905133 13.5784752 13.73473425 15.28889836 15 17 C15.63421875 17.84046875 16.2684375 18.6809375 16.921875 19.546875 C24.16476448 29.44770557 31.36405719 39.53237539 30.4609375 52.25390625 C29.41316767 58.49612818 26.58282332 61.82453875 22 66 C21.48050781 66.50015625 20.96101562 67.0003125 20.42578125 67.515625 C9.10492382 78.02609567 -15.05429435 97 -31 97 C-31 96.34 -31 95.68 -31 95 C-28.88876241 93.21610935 -26.76708953 91.53637283 -24.5625 89.875 C-19.60488649 86.06585158 -14.83123673 82.16518469 -10.203125 77.95703125 C-7.71527621 75.74708047 -5.14993098 73.65484991 -2.5625 71.5625 C1.17825991 68.51622716 4.87412984 65.43253232 8.5 62.25 C9.2940625 61.55390625 10.088125 60.8578125 10.90625 60.140625 C15.93417277 55.0001368 16.63933301 50.71839405 16.61889648 43.63427734 C16.28684461 34.95446063 12.79082943 27.67642959 9 20 C8.59910156 19.18515137 8.19820312 18.37030273 7.78515625 17.53076172 C6.16029738 14.24624366 4.53003592 10.96604624 2.84594727 7.71142578 C0 2.19767357 0 2.19767357 0 0 Z " fill="#E9E9E9" transform="translate(708,429)"></path>
<path d="M0 0 C0.33 0.66 0.66 1.32 1 2 C-0.01635742 4.28735352 -0.01635742 4.28735352 -1.60546875 7.12890625 C-2.17716797 8.16466797 -2.74886719 9.20042969 -3.33789062 10.26757812 C-3.94826172 11.35490234 -4.55863281 12.44222656 -5.1875 13.5625 C-15.71553453 32.09431251 -15.71553453 32.09431251 -17 53 C-13.45659363 61.7201016 -3.09929172 67.89561023 4.11279297 73.52539062 C6.55214422 75.43142964 8.96366152 77.37120056 11.375 79.3125 C12.91615382 80.54230962 14.45781694 81.77148129 16 83 C21.37569087 87.28450586 26.741619 91.57188969 32 96 C30.4375 96.69921875 30.4375 96.69921875 28 97 C25.52838012 96.04588203 23.330698 95.04106267 21 93.8125 C20.30865967 93.45591309 19.61731934 93.09932617 18.9050293 92.73193359 C-25.81056187 69.26305331 -25.81056187 69.26305331 -31 54 C-32.92353783 39.72247271 -23.67411446 28.02149662 -15.5 17.25 C-10.671965 11.2262367 -5.51215163 5.40749052 0 0 Z " fill="#EAEAEA" transform="translate(317,429)"></path>
<path d="M0 0 C0.33 1.32 0.66 2.64 1 4 C1.66 4 2.32 4 3 4 C2.49877389 13.29634238 1.38366722 22.27959265 -0.25 31.4375 C-7.38998125 73.29258523 -9.88580498 116.00334979 -12.87890625 158.3125 C-12.98298798 159.78229561 -12.98298798 159.78229561 -13.08917236 161.28178406 C-13.41589054 165.91114159 -13.73750984 170.54075611 -14.04931641 175.17114258 C-14.10651352 176.0035144 -14.16371063 176.83588623 -14.22264099 177.69348145 C-14.32825135 179.23089635 -14.43136692 180.76848572 -14.53138733 182.30627441 C-14.78369204 185.94367854 -15.18142253 189.44475051 -16 193 C-16.66 193 -17.32 193 -18 193 C-20.58241735 169.30060025 -18.92515125 145.21518457 -17.18359375 121.50097656 C-17.05719089 119.77907376 -16.93227702 118.05706122 -16.80859375 116.33496094 C-15.00708176 91.29924289 -12.43823523 66.69192239 -7.75244141 42.02783203 C-6.97899873 37.93133967 -6.26912834 33.825301 -5.57421875 29.71484375 C-5.4612294 29.04748703 -5.34824005 28.38013031 -5.23182678 27.69255066 C-4.9040459 25.75345245 -4.57701381 23.81422772 -4.25 21.875 C-3.00896414 14.534094 -1.68664977 7.252594 0 0 Z " fill="#E7E7E7" transform="translate(722,223)"></path>
<path d="M0 0 C1.32 0.33 2.64 0.66 4 1 C3.41323858 5.14779627 1.03879238 8.08893943 -1.375 11.375 C-1.82125732 11.99076904 -2.26751465 12.60653809 -2.72729492 13.2409668 C-6.71629174 18.70299502 -10.8856477 24.01559305 -15.08984375 29.3125 C-19.9302964 35.42120072 -24.62758546 41.64101003 -29.3515625 47.83984375 C-30.96022476 49.94787747 -32.57302748 52.05266388 -34.1875 54.15625 C-36.89468396 57.68406988 -39.59446855 61.21743758 -42.2890625 64.75488281 C-43.45432086 66.28395186 -44.62104677 67.81190339 -45.7890625 69.33886719 C-55.65823797 82.25803785 -64.95511993 95.49269458 -74 109 C-74.92559098 110.37512809 -75.85135496 111.75013976 -76.77734375 113.125 C-80.19978841 118.22230021 -83.58705359 123.33663752 -86.87890625 128.51953125 C-87.3677832 129.28612061 -87.85666016 130.05270996 -88.36035156 130.8425293 C-89.29916239 132.31814167 -90.23249908 133.79725742 -91.15917969 135.28051758 C-93.76042029 139.36881051 -96.43576425 142.71092069 -100 146 C-98.39032373 140.32912901 -95.70738032 135.44266618 -92.875 130.3125 C-92.35147949 129.36060791 -91.82795898 128.40871582 -91.28857422 127.42797852 C-74.68769014 97.47735762 -56.7101529 68.01015872 -34.4296875 41.89453125 C-31.67917966 38.61780085 -29.05738948 35.25617457 -26.4375 31.875 C-22.54994186 26.87389972 -18.49156829 22.11560039 -14.203125 17.44921875 C-9.18963873 11.87571539 -4.45747349 6.02740126 0 0 Z " fill="#E5E6E6" transform="translate(670,531)"></path>
<path d="M0 0 C4.02070022 1.57249868 6.5057019 4.41179363 9.3125 7.5625 C9.80250488 8.10551758 10.29250977 8.64853516 10.79736328 9.20800781 C14.02821901 12.82153501 17.07537388 16.53174432 20 20.3984375 C22.72608266 23.94447472 25.55023581 27.40734734 28.375 30.875 C28.940979 31.57028809 29.50695801 32.26557617 30.09008789 32.98193359 C33.3243119 36.95169551 36.5666583 40.9147356 39.8125 44.875 C41.20850038 46.58319683 42.60434265 48.29152289 44 50 C44.65226562 50.79277344 45.30453125 51.58554687 45.9765625 52.40234375 C66.96294261 78.19636074 83.41829712 107.73256837 99 137 C99.40444336 137.74765625 99.80888672 138.4953125 100.22558594 139.265625 C101.2135536 141.14521447 102.11526468 143.0696684 103 145 C102.67 145.66 102.34 146.32 102 147 C101.67364059 146.50935059 101.34728119 146.01870117 101.0110321 145.51318359 C97.55594657 140.31933128 94.09911752 135.12664241 90.64135742 129.93457031 C89.35804923 128.00712255 88.07515844 126.07939681 86.79272461 124.15136719 C71.87125491 101.62365117 71.87125491 101.62365117 56.1875 79.625 C55.60911377 78.8424585 55.03072754 78.05991699 54.43481445 77.25366211 C49.12725281 70.1060312 43.66186616 63.08512053 38.17578125 56.07421875 C34.03484088 50.77670041 30.01545818 45.39317573 26 40 C25.05794093 38.74560589 24.11518983 37.4917313 23.171875 36.23828125 C18.08235512 29.47420889 13.01458506 22.69486977 8 15.875 C7.55543457 15.27196045 7.11086914 14.6689209 6.65283203 14.04760742 C5.42466681 12.37243136 4.21161113 10.6871685 3 9 C2.38898438 8.18063965 2.38898438 8.18063965 1.765625 7.34472656 C0.625 5.7578125 0.625 5.7578125 -1 3 C-0.67 2.01 -0.34 1.02 0 0 Z " fill="#EAE9EA" transform="translate(352,530)"></path>
<path d="M0 0 C1.53194133 2.81297822 2.40728546 5.3250328 3.00561523 8.46704102 C3.17596786 9.34638809 3.3463205 10.22573517 3.52183533 11.13172913 C3.69896561 12.07954758 3.87609589 13.02736603 4.05859375 14.00390625 C4.24841324 14.99639877 4.43823273 15.9888913 4.63380432 17.01145935 C5.03579179 19.11997774 5.43488093 21.22905044 5.83129883 23.33862305 C6.42572091 26.4998569 7.02939944 29.65920525 7.63476562 32.81835938 C11.19758433 51.51201688 14.22260256 70.05900893 15.88037109 89.02368164 C16.12400262 91.80112966 16.37963757 94.57728372 16.63671875 97.35351562 C18.59064952 118.87225301 19.14770635 140.27438719 19.0625 161.875 C19.05746603 164.13541566 19.05290653 166.39583242 19.04882812 168.65625 C19.03799332 174.10419154 19.021411 179.55209027 19 185 C18.34 185.33 17.68 185.66 17 186 C15.79216371 182.37649114 15.44608334 178.81301419 15.05859375 175.03515625 C14.97266464 174.20597183 14.88673553 173.37678741 14.79820251 172.5224762 C13.72416129 161.75099535 13.03325858 150.95041778 12.3117981 140.15078735 C8.20431345 78.93795004 8.20431345 78.93795004 -0.91967773 18.30224609 C-2.12219168 11.75433996 -2.13742033 6.41226099 0 0 Z " fill="#E6E6E6" transform="translate(303,230)"></path>
<path d="M0 0 C10.06382278 3.94516465 18.90204284 20.46663535 25.15234375 28.84375 C25.71469727 29.59188965 26.27705078 30.3400293 26.85644531 31.11083984 C33.95903579 40.56405921 40.83604688 50.15718792 47.52734375 59.90625 C48.18847168 60.86490967 48.84959961 61.82356934 49.53076172 62.8112793 C50.13549316 63.69984619 50.74022461 64.58841309 51.36328125 65.50390625 C51.90259277 66.29418213 52.4419043 67.08445801 52.99755859 67.89868164 C54.15234375 69.84375 54.15234375 69.84375 54.15234375 71.84375 C53.49234375 71.84375 52.83234375 71.84375 52.15234375 71.84375 C50.77743076 70.33587839 49.47869913 68.75835239 48.21484375 67.15625 C47.41304688 66.15335937 46.61125 65.15046875 45.78515625 64.1171875 C45.35750977 63.5819043 44.92986328 63.04662109 44.48925781 62.49511719 C42.23879065 59.71532173 39.91156108 57.00154022 37.58984375 54.28125 C33.78039564 49.79977684 30.05248844 45.26675379 26.39453125 40.66015625 C23.41382692 36.91610081 20.41155148 33.18991672 17.40234375 29.46875 C16.84691895 28.7780542 16.29149414 28.0873584 15.71923828 27.37573242 C15.18669434 26.71806885 14.65415039 26.06040527 14.10546875 25.3828125 C13.39632324 24.50423584 13.39632324 24.50423584 12.67285156 23.60791016 C10.9274203 21.5827839 9.06136305 19.71426031 7.15234375 17.84375 C7.13688255 18.67368469 7.13688255 18.67368469 7.12110901 19.52038574 C7.01158908 25.36214644 6.89714019 31.20379682 6.7800293 37.04541016 C6.73713887 39.21563371 6.69543942 41.38588119 6.6550293 43.55615234 C6.42226589 56.01043137 6.08917394 68.42011727 5.15234375 80.84375 C4.16234375 80.51375 3.17234375 80.18375 2.15234375 79.84375 C0.63160733 76.80227715 0.57141316 73.5306556 0.21484375 70.1875 C0.12984619 69.41176636 0.04484863 68.63603271 -0.04272461 67.83679199 C-0.22280494 66.18258299 -0.40088636 64.52815537 -0.57714844 62.87353516 C-0.84073798 60.40844957 -1.11321693 57.9444715 -1.38671875 55.48046875 C-3.01105709 40.58177909 -4.04999263 25.71351309 -3.91015625 10.71875 C-3.90564453 9.75066406 -3.90113281 8.78257812 -3.89648438 7.78515625 C-3.88502953 5.47127818 -3.86883301 3.15755568 -3.84765625 0.84375 C-1.84765625 -0.15625 -1.84765625 -0.15625 0 0 Z " fill="#E5E5E5" transform="translate(349.84765625,312.15625)"></path>
<path d="M0 0 C3.53571429 0.53571429 3.53571429 0.53571429 5 2 C5.10056934 3.91062768 5.13081877 5.82500962 5.1328125 7.73828125 C5.13498779 8.9406543 5.13716309 10.14302734 5.1394043 11.38183594 C5.13227417 13.32751465 5.13227417 13.32751465 5.125 15.3125 C5.12311676 15.97270142 5.12123352 16.63290283 5.11929321 17.31311035 C5.06613967 33.170665 4.37272489 48.74145657 2.5625 64.5 C2.44028076 65.5818457 2.31806152 66.66369141 2.19213867 67.77832031 C2.00615112 69.29570801 2.00615112 69.29570801 1.81640625 70.84375 C1.70756104 71.74287109 1.59871582 72.64199219 1.48657227 73.56835938 C0.99741281 76.01292946 0.2222233 77.83917713 -1 80 C-1.66 80 -2.32 80 -3 80 C-4.0137171 66.46967675 -4.11996749 53.00091158 -4.0625 39.4375 C-4.0574697 37.34700629 -4.05290953 35.2565114 -4.04882812 33.16601562 C-4.03795581 28.11064707 -4.02077755 23.05533715 -4 18 C-8.691863 21.74597087 -8.691863 21.74597087 -12.67578125 26.19921875 C-13.10656982 26.76350586 -13.5373584 27.32779297 -13.98120117 27.90917969 C-14.42052979 28.49602539 -14.8598584 29.08287109 -15.3125 29.6875 C-19.296595 34.88905177 -23.44796808 39.81555322 -27.88671875 44.640625 C-30.72309845 47.807304 -33.32338537 51.13897738 -35.94921875 54.48046875 C-38.8264544 58.01535827 -41.90946125 61.3455293 -45.01953125 64.67578125 C-47.09261812 66.97157933 -47.09261812 66.97157933 -48.63671875 69.79296875 C-49.08660156 70.52128906 -49.53648437 71.24960937 -50 72 C-50.66 72 -51.32 72 -52 72 C-50.36106612 66.82711494 -47.18840459 62.86814266 -44 58.5625 C-42.81083756 56.93776369 -41.62203868 55.31276122 -40.43359375 53.6875 C-39.84690918 52.88828125 -39.26022461 52.0890625 -38.65576172 51.265625 C-36.42877917 48.21838258 -34.24456544 45.14195761 -32.0625 42.0625 C-7.29743361 7.29743361 -7.29743361 7.29743361 0 0 Z " fill="#E6E6E6" transform="translate(674,312)"></path>
<path d="M0 0 C0.99 0.33 1.98 0.66 3 1 C2.7834375 1.53367187 2.566875 2.06734375 2.34375 2.6171875 C-0.17487343 9.35683723 -1.32030477 16.0390857 1 23 C2.31632794 23.69964489 3.65223681 24.36300973 5 25 C6.640625 26.48046875 6.640625 26.48046875 8.25 28.1875 C11.29404205 31.3291075 14.47194624 34.20905803 17.8125 37.03125 C24.59538734 43.13584861 29.70820956 49.56419161 34.75 57.1875 C36.05662628 59.13976842 37.36389309 61.09160832 38.671875 63.04296875 C39.2400293 63.89914795 39.80818359 64.75532715 40.39355469 65.63745117 C41.44823777 67.18854056 42.55277588 68.70708853 43.70800781 70.18481445 C45 72 45 72 45 74 C37.35569163 70.60450489 31.05944019 64.00817543 24.9375 58.4375 C21.0429225 54.89642092 17.04116839 51.56497918 12.91015625 48.3046875 C9.18760021 45.35662298 5.49902699 42.3679213 1.8125 39.375 C1.14718262 38.83649414 0.48186523 38.29798828 -0.20361328 37.74316406 C-2.14198586 36.16953124 -4.07339129 34.58801056 -6 33 C-6.65178223 32.4627832 -7.30356445 31.92556641 -7.97509766 31.37207031 C-8.59819824 30.84967773 -9.22129883 30.32728516 -9.86328125 29.7890625 C-10.41927002 29.3245166 -10.97525879 28.8599707 -11.5480957 28.38134766 C-13.95324931 26.09307472 -14.95466979 24.41817118 -15.3125 21.1171875 C-14.45778259 12.59138135 -5.9770979 5.5579248 0 0 Z " fill="#EAEAEA" transform="translate(345,450)"></path>
<path d="M0 0 C3 0 3 0 4.61328125 1.46875 C5.17402344 2.1390625 5.73476563 2.809375 6.3125 3.5 C6.91964844 4.22445313 7.52679687 4.94890625 8.15234375 5.6953125 C16.70556161 16.36423119 16.70556161 16.36423119 17.5625 21.125 C16.3427461 29.52774909 7.04982166 34.68918632 0.77734375 39.72265625 C-1.83524253 41.86490351 -4.32809016 44.08640571 -6.8125 46.375 C-11.24823775 50.42410451 -15.90520877 54.0898892 -20.66040039 57.7487793 C-25.44092094 61.4660901 -29.90453319 65.45179083 -34.26904297 69.64794922 C-37.79797001 73 -37.79797001 73 -40 73 C-32.42821782 53.03162561 -15.50759031 36.04272436 0.43359375 22.34765625 C1.31248398 21.59150381 2.18017851 20.81982149 3 20 C3.46449622 12.80030855 2.15229169 6.85402412 0 0 Z " fill="#E7E6E7" transform="translate(678,450)"></path>
<path d="M0 0 C3.88647584 1.66160924 6.89605825 4.276852 10.125 6.9375 C18.22727622 13.4665187 26.97901885 18.83992559 36 24 C37.0003125 24.598125 38.000625 25.19625 39.03125 25.8125 C43.44998798 27.57999519 47.44554373 27.83180285 51.94335938 26.3671875 C53.93658729 25.49756309 55.83665931 24.5333464 57.75 23.5 C58.44319336 23.1383374 59.13638672 22.7766748 59.85058594 22.40405273 C67.42219923 18.37650602 74.4853293 13.69667935 81.30078125 8.49609375 C81.84637695 8.08029053 82.39197266 7.6644873 82.95410156 7.23608398 C84.47911268 6.0640847 85.99189628 4.87622497 87.50390625 3.6875 C90 2 90 2 93 2 C61.6526517 36.19182991 61.6526517 36.19182991 46.375 38.5625 C33.26641653 38.12146355 19.31434725 21.46650508 10.4375 12.6875 C9.85379639 12.11314209 9.27009277 11.53878418 8.66870117 10.94702148 C5.27342059 7.52597028 2.53712342 4.10033883 0 0 Z " fill="#E8E8E8" transform="translate(466,692)"></path>
<path d="M0 0 C-1 2 -1 2 -4.11328125 3.19140625 C-5.51182645 3.65207944 -6.91167644 4.10880206 -8.3125 4.5625 C-15.20619039 6.90221273 -21.9080022 9.54763922 -28.5625 12.5 C-29.38210205 12.85521729 -30.2017041 13.21043457 -31.04614258 13.57641602 C-38.36566858 16.87620844 -44.7717126 21.02495691 -49.875 27.3125 C-52.82258065 30.91129032 -52.82258065 30.91129032 -55 32 C-56.54023996 32.06950541 -58.08334988 32.08452357 -59.625 32.0625 C-60.85089844 32.04896484 -60.85089844 32.04896484 -62.1015625 32.03515625 C-62.72804688 32.02355469 -63.35453125 32.01195312 -64 32 C-63.97246883 26.05326685 -63.03612078 21.5454728 -59.1796875 16.9140625 C-51.24384135 9.94530872 -40.03689557 6.5727136 -30 4 C-28.9469165 3.72712158 -28.9469165 3.72712158 -27.87255859 3.44873047 C-18.5048994 1.06192435 -9.73904104 -0.68746172 0 0 Z " fill="#E7E7E7" transform="translate(610,461)"></path>
<path d="M0 0 C15.69775325 1.24320268 29.97340382 4.6672681 44.75 10.0625 C45.39340332 10.29549805 46.03680664 10.52849609 46.69970703 10.76855469 C53.75994108 13.45976735 58.55263851 17.02782886 63 23 C64.1577506 26.47325181 64.06866652 29.36067448 64 33 C60.49404601 33.55650063 58.3868021 33.83221576 55 33 C53.20703125 31.1953125 53.20703125 31.1953125 51.375 28.75 C39.6397329 14.34577459 16.9050576 8.15416888 0 2 C0 1.34 0 0.68 0 0 Z " fill="#E9E9E9" transform="translate(415,460)"></path>
<path d="M0 0 C0 0.33 0 0.66 0 1 C-0.7731958 0.9292627 -1.5463916 0.85852539 -2.34301758 0.78564453 C-14.26245762 -0.16350688 -26.16475033 -0.15177664 -38.11645508 -0.13037109 C-41.69030976 -0.12499577 -45.26403967 -0.13035218 -48.83789062 -0.13671875 C-51.14583361 -0.13605812 -53.45377651 -0.13477726 -55.76171875 -0.1328125 C-56.81203781 -0.13483673 -57.86235687 -0.13686096 -58.94450378 -0.13894653 C-66.00671156 -0.11694446 -72.97169382 0.31444269 -80 1 C-79.67 0.34 -79.34 -0.32 -79 -1 C-76.22411145 -1.76824591 -73.50337083 -2.41859337 -70.6875 -3 C-69.8637085 -3.17370117 -69.03991699 -3.34740234 -68.19116211 -3.52636719 C-66.54021604 -3.87067092 -64.88828065 -4.21026771 -63.23535156 -4.54492188 C-61.42162357 -4.91416488 -59.61237154 -5.30534612 -57.8046875 -5.703125 C-38.34770517 -9.58343487 -18.39628461 -6.83663343 0 0 Z " fill="#EAEBEA" transform="translate(553,377)"></path>
<path d="M0 0 C0.33 1.32 0.66 2.64 1 4 C1.66 4 2.32 4 3 4 C2.47705147 14.03456282 1.2058514 23.79331925 -0.5 33.6875 C-1.9975248 42.44365316 -3.37874123 51.1319947 -4 60 C-4.33 60 -4.66 60 -5 60 C-5.33 58.35 -5.66 56.7 -6 55 C-6.33 55 -6.66 55 -7 55 C-7.12117187 55.63808594 -7.24234375 56.27617187 -7.3671875 56.93359375 C-7.53476562 57.75988281 -7.70234375 58.58617187 -7.875 59.4375 C-8.03742187 60.26121094 -8.19984375 61.08492188 -8.3671875 61.93359375 C-8.57601562 62.61550781 -8.78484375 63.29742187 -9 64 C-9.99 64.495 -9.99 64.495 -11 65 C-8.58807608 43.13400548 -4.22058914 21.57450535 0 0 Z " fill="#E3E4E4" transform="translate(722,223)"></path>
<path d="M0 0 C2.58331298 3.29955863 4.78652954 6.78552564 6.9375 10.375 C7.32083496 11.01421387 7.70416992 11.65342773 8.09912109 12.31201172 C13.19021933 20.89530091 17.89941147 29.69110594 22.63134766 38.47558594 C23.85656379 40.73543875 25.09972413 42.98357668 26.35546875 45.2265625 C26.86086182 46.13704346 26.86086182 46.13704346 27.37646484 47.06591797 C28.2427378 48.62448627 29.11523984 50.17958797 29.98828125 51.734375 C30.32214844 52.48203125 30.65601563 53.2296875 31 54 C30.505 54.99 30.505 54.99 30 56 C29.66031693 55.48936508 29.32063385 54.97873016 28.97065735 54.45262146 C25.41911161 49.11419836 21.86591044 43.7768799 18.31176758 38.44018555 C16.98745354 36.45120785 15.6635548 34.46195358 14.34008789 32.47241211 C12.43225784 29.60456829 10.52291201 26.73773875 8.61328125 23.87109375 C7.73329216 22.54723915 7.73329216 22.54723915 6.83552551 21.19664001 C6.27532211 20.35629715 5.71511871 19.51595428 5.13793945 18.65014648 C4.60987701 17.85494598 4.08181458 17.05974548 3.53775024 16.240448 C2.09916885 14.14448553 0.57633793 12.1452475 -0.97583008 10.13305664 C-3 7 -3 7 -2.62651062 4.80418396 C-2.41976212 4.20880325 -2.21301361 3.61342255 -2 3 C-1.34 3 -0.68 3 0 3 C0 2.01 0 1.02 0 0 Z " fill="#E3E3E3" transform="translate(424,621)"></path>
<path d="M0 0 C1.97008212 1.62692123 2.9127828 2.5148436 3.37231445 5.07104492 C3.3693335 5.86615479 3.36635254 6.66126465 3.36328125 7.48046875 C3.36400635 8.38619629 3.36473145 9.29192383 3.36547852 10.22509766 C3.33925415 11.69148682 3.33925415 11.69148682 3.3125 13.1875 C3.303396 14.19603027 3.29429199 15.20456055 3.28491211 16.24365234 C3.08019085 29.07087305 2.67788757 42.41911323 0 55 C-0.66 55 -1.32 55 -2 55 C-3.98194761 37.01497771 -5.09114742 17.54627592 0 0 Z " fill="#DBDBDB" transform="translate(706,361)"></path>
<path d="M0 0 C-0.99 0.33 -1.98 0.66 -3 1 C10.86 1 24.72 1 39 1 C38.505 0.01 38.505 0.01 38 -1 C42.45143264 -0.35731596 46.58881647 0.70666643 50.875 2.0625 C52.02742187 2.42472656 53.17984375 2.78695313 54.3671875 3.16015625 C55.23601562 3.43730469 56.10484375 3.71445312 57 4 C57 4.33 57 4.66 57 5 C56.2268042 4.9292627 55.4536084 4.85852539 54.65698242 4.78564453 C42.73754238 3.83649312 30.83524967 3.84822336 18.88354492 3.86962891 C15.30969024 3.87500423 11.73596033 3.86964782 8.16210938 3.86328125 C5.85416639 3.86394188 3.54622349 3.86522274 1.23828125 3.8671875 C0.18796219 3.86516327 -0.86235687 3.86313904 -1.94450378 3.86105347 C-9.00671156 3.88305554 -15.97169382 4.31444269 -23 5 C-22 3 -22 3 -20.29760742 2.38989258 C-17.92929739 1.85472151 -15.56152375 1.32187613 -13.1875 0.8125 C-11.95676758 0.52729492 -11.95676758 0.52729492 -10.70117188 0.23632812 C-9.90646484 0.06166016 -9.11175781 -0.11300781 -8.29296875 -0.29296875 C-7.5661792 -0.4530542 -6.83938965 -0.61313965 -6.09057617 -0.77807617 C-3.80335782 -1.02087443 -2.1806664 -0.68528203 0 0 Z " fill="#B6B7B9" transform="translate(496,373)"></path>
<path d="M0 0 C0.66 0.33 1.32 0.66 2 1 C0.08721666 3.89841559 -1.83091579 6.79325324 -3.75 9.6875 C-4.28882813 10.50412109 -4.82765625 11.32074219 -5.3828125 12.16210938 C-8.10021017 16.25477538 -10.83731275 20.23087514 -14 24 C-14.8971875 23.690625 -14.8971875 23.690625 -15.8125 23.375 C-18.28450846 22.69328085 -18.28450846 22.69328085 -21 25 C-19.47147075 21.46324349 -17.3583611 19.00435254 -14.75 16.1875 C-12.012731 13.20418434 -9.29985754 10.21840548 -6.6875 7.125 C-4.56776493 4.62737344 -2.3635319 2.27262682 0 0 Z " fill="#E7E8E8" transform="translate(613,553)"></path>
<path d="M0 0 C2.97354609 2.62183634 3.57036052 4.61202431 3.94921875 8.59375 C4.04416188 13.09259374 3.53312631 17.53814291 3 22 C2.67 22 2.34 22 2 22 C1.67 20.35 1.34 18.7 1 17 C0.67 17 0.34 17 0 17 C-0.12117187 17.63808594 -0.24234375 18.27617187 -0.3671875 18.93359375 C-0.53476562 19.75988281 -0.70234375 20.58617187 -0.875 21.4375 C-1.03742187 22.26121094 -1.19984375 23.08492188 -1.3671875 23.93359375 C-1.57601562 24.61550781 -1.78484375 25.29742187 -2 26 C-2.66 26.33 -3.32 26.66 -4 27 C-2.93170365 17.94221076 -1.78270374 8.95144855 0 0 Z " fill="#D9D9DA" transform="translate(715,261)"></path>
<path d="M0 0 C-1.7261939 3.45238779 -5.88693547 3.89126265 -9.375 5.0625 C-10.15617188 5.33126953 -10.93734375 5.60003906 -11.7421875 5.87695312 C-14.82270299 6.93456161 -17.91013418 7.97004473 -21 9 C-20.7215625 7.824375 -20.7215625 7.824375 -20.4375 6.625 C-19.74037734 4.02910225 -19.74037734 4.02910225 -21 2 C-13.87049629 0.09879901 -7.36259293 -0.22424141 0 0 Z " fill="#E6E7E8" transform="translate(610,461)"></path>
<path d="M0 0 C2.23405028 3.74618038 2.90962217 7.76957079 3.6875 12 C3.82994141 12.7115625 3.97238281 13.423125 4.11914062 14.15625 C4.78104921 17.68642913 5.32378445 20.58836758 4 24 C3.01 23.01 2.02 22.02 1 21 C0.67 21.99 0.34 22.98 0 24 C-1.56795839 15.49933304 -2.78045626 8.34136879 0 0 Z " fill="#E2E1E2" transform="translate(303,230)"></path>
<path d="M0 0 C0.33 0 0.66 0 1 0 C1 11.22 1 22.44 1 34 C0.01 34.495 0.01 34.495 -1 35 C-2.1353654 32.72926921 -2.12892412 31.45716721 -2.1328125 28.9375 C-2.13410156 28.14085937 -2.13539063 27.34421875 -2.13671875 26.5234375 C-2.13285156 25.69070313 -2.12898438 24.85796875 -2.125 24 C-2.13080078 22.75089844 -2.13080078 22.75089844 -2.13671875 21.4765625 C-2.13542969 20.67992187 -2.13414062 19.88328125 -2.1328125 19.0625 C-2.13168457 18.33160156 -2.13055664 17.60070312 -2.12939453 16.84765625 C-2 15 -2 15 -1 13 C-0.77049681 10.795636 -0.58924067 8.58607827 -0.4375 6.375 C-0.35371094 5.18648438 -0.26992188 3.99796875 -0.18359375 2.7734375 C-0.12300781 1.85820312 -0.06242187 0.94296875 0 0 Z " fill="#F0F1F1" transform="translate(320,368)"></path>
<path d="M0 0 C0.33 0 0.66 0 1 0 C1 16.17 1 32.34 1 49 C0.01 49.495 0.01 49.495 -1 50 C-1.99293628 47.02119115 -2.13406411 44.98398802 -2.125 41.875 C-2.12757813 40.98554688 -2.13015625 40.09609375 -2.1328125 39.1796875 C-2 37 -2 37 -1 36 C-0.83996512 33.33573315 -0.74057111 30.69439572 -0.68359375 28.02734375 C-0.66281265 27.22970108 -0.64203156 26.43205841 -0.62062073 25.61024475 C-0.55503842 23.05275389 -0.49620033 20.4951572 -0.4375 17.9375 C-0.39432301 16.20767118 -0.35070899 14.47785321 -0.30664062 12.74804688 C-0.19934828 8.4988074 -0.09810574 4.2494611 0 0 Z " fill="#CCCECE" transform="translate(321,366)"></path>
<path d="M0 0 C4.20315976 1.40105325 5.05151031 4.32044278 6.9375 8.0625 C7.28868896 8.7433667 7.63987793 9.4242334 8.00170898 10.12573242 C8.69502964 11.47298965 9.38434931 12.82231457 10.06933594 14.17382812 C10.84345985 15.69283307 11.64143386 17.19965468 12.4453125 18.703125 C13.3627854 20.43541649 14.19412495 22.21305967 15 24 C14.67 24.66 14.34 25.32 14 26 C11.83263868 22.99409499 9.69526047 19.9680298 7.5625 16.9375 C6.95083984 16.08994141 6.33917969 15.24238281 5.70898438 14.36914062 C2.3098563 9.50519492 0.18683463 5.98683133 0 0 Z " fill="#DDDDDD" transform="translate(440,651)"></path>
<path d="M0 0 C2.95970455 0.28102245 5.917288 0.5742918 8.875 0.875 C10.13763672 0.99294922 10.13763672 0.99294922 11.42578125 1.11328125 C12.23144531 1.19707031 13.03710938 1.28085937 13.8671875 1.3671875 C14.61081543 1.44050293 15.35444336 1.51381836 16.12060547 1.58935547 C18 2 18 2 20 4 C19.01 4 18.02 4 17 4 C16.67 4.99 16.34 5.98 16 7 C12.21760329 6.34309381 8.78158474 5.279869 5.1875 3.9375 C4.21167969 3.57527344 3.23585938 3.21304687 2.23046875 2.83984375 C1.49441406 2.56269531 0.75835937 2.28554688 0 2 C0 1.34 0 0.68 0 0 Z " fill="#D3D3D3" transform="translate(415,460)"></path>
<path d="M0 0 C1.32 0.66 2.64 1.32 4 2 C1.832705 5.89271432 -0.67413029 9.03709814 -3.6875 12.3125 C-4.49574219 13.19550781 -5.30398438 14.07851563 -6.13671875 14.98828125 C-6.75160156 15.65214844 -7.36648438 16.31601562 -8 17 C-8.33 16.34 -8.66 15.68 -9 15 C-7.59104764 12.38211357 -6.13756909 9.88954328 -4.5625 7.375 C-3.9118457 6.31539062 -3.9118457 6.31539062 -3.24804688 5.234375 C-2.17251868 3.48516432 -1.08716275 1.74200346 0 0 Z " fill="#E1E1E3" transform="translate(527,661)"></path>
<path d="M0 0 C0.33 0 0.66 0 1 0 C1.19789024 3.22861733 1.38146345 6.45789727 1.5625 9.6875 C1.61857422 10.59951172 1.67464844 11.51152344 1.73242188 12.45117188 C1.78076172 13.33740234 1.82910156 14.22363281 1.87890625 15.13671875 C1.94960327 16.35427856 1.94960327 16.35427856 2.02172852 17.59643555 C1.99838228 20.1789485 1.5804792 22.48849909 1 25 C-1 23 -1 23 -1.24291992 20.76928711 C-1.23881104 19.8644458 -1.23470215 18.95960449 -1.23046875 18.02734375 C-1.22853516 17.04572266 -1.22660156 16.06410156 -1.22460938 15.05273438 C-1.21236328 14.02470703 -1.20011719 12.99667969 -1.1875 11.9375 C-1.18685547 10.90560547 -1.18621094 9.87371094 -1.18554688 8.81054688 C-1.14015997 1.14015997 -1.14015997 1.14015997 0 0 Z " fill="#EEEFEE" transform="translate(706,379)"></path>
<path d="M0 0 C3.66060821 0.58536753 5.54535164 2.083239 8.25 4.5625 C8.95640625 5.20316406 9.6628125 5.84382812 10.390625 6.50390625 C10.92171875 6.99761719 11.4528125 7.49132812 12 8 C9.44855176 8.93045933 8.25993522 9.08564091 5.640625 8.22265625 C4.85171875 7.83980469 4.0628125 7.45695313 3.25 7.0625 C2.45078125 6.68222656 1.6515625 6.30195312 0.828125 5.91015625 C0.22484375 5.60980469 -0.3784375 5.30945313 -1 5 C-0.67 3.35 -0.34 1.7 0 0 Z " fill="#E4E4E5" transform="translate(337,517)"></path>
<path d="M0 0 C4.45143264 0.64268404 8.58881647 1.70666643 12.875 3.0625 C14.02742187 3.42472656 15.17984375 3.78695313 16.3671875 4.16015625 C17.23601563 4.43730469 18.10484375 4.71445312 19 5 C19 5.33 19 5.66 19 6 C10.75 5.34 2.5 4.68 -6 4 C-6 3.67 -6 3.34 -6 3 C-2.535 2.505 -2.535 2.505 1 2 C0.67 1.34 0.34 0.68 0 0 Z " fill="#CCCDCE" transform="translate(534,372)"></path>
<path d="M0 0 C0.99 0 1.98 0 3 0 C4.25854492 1.34521484 4.25854492 1.34521484 5.48046875 3.2109375 C5.92197266 3.87867188 6.36347656 4.54640625 6.81835938 5.234375 C7.27017578 5.94078125 7.72199219 6.6471875 8.1875 7.375 C8.65091797 8.07367188 9.11433594 8.77234375 9.59179688 9.4921875 C13 14.71241025 13 14.71241025 13 17 C12.34 17 11.68 17 11 17 C9.43802886 15.28358022 7.94860958 13.50061361 6.5 11.6875 C5.7059375 10.70136719 4.911875 9.71523438 4.09375 8.69921875 C0 3.42164179 0 3.42164179 0 0 Z " fill="#DDDDDD" transform="translate(391,367)"></path>
<path d="M0 0 C0.33 1.32 0.66 2.64 1 4 C1.66 4 2.32 4 3 4 C2.67 8.62 2.34 13.24 2 18 C1.34 16.68 0.68 15.36 0 14 C-0.99 15.32 -1.98 16.64 -3 18 C-2.41509121 11.85845775 -1.45933748 5.99320151 0 0 Z " fill="#C1C2C3" transform="translate(722,223)"></path>
<path d="M0 0 C0.02698189 1.62490954 0.04638757 3.24994633 0.0625 4.875 C0.07410156 5.77992188 0.08570313 6.68484375 0.09765625 7.6171875 C0 10 0 10 -1 12 C-1.2275015 13.87056791 -1.40962811 15.74685958 -1.5625 17.625 C-1.64628906 18.62789063 -1.73007812 19.63078125 -1.81640625 20.6640625 C-1.87699219 21.43492187 -1.93757813 22.20578125 -2 23 C-2.33 23 -2.66 23 -3 23 C-3 15.74 -3 8.48 -3 1 C-1 0 -1 0 0 0 Z " fill="#DFE0E1" transform="translate(320,371)"></path>
<path d="M0 0 C-1 2 -1 2 -3.8125 3.125 C-7 4 -7 4 -11 4 C-11 3.34 -11 2.68 -11 2 C-13.31 2 -15.62 2 -18 2 C-18 1.67 -18 1.34 -18 1 C-12.03325384 -0.32594359 -6.07416385 -0.0884587 0 0 Z " fill="#C8C7C7" transform="translate(610,461)"></path>
<path d="M0 0 C0.33 0.66 0.66 1.32 1 2 C0.00390625 4.1640625 0.00390625 4.1640625 -1.4375 6.625 C-1.91058594 7.44226563 -2.38367188 8.25953125 -2.87109375 9.1015625 C-3.24363281 9.72804688 -3.61617188 10.35453125 -4 11 C-5.98 11 -7.96 11 -10 11 C-6.79239749 7.19364503 -3.59253891 3.45436433 0 0 Z " fill="#E0E0E1" transform="translate(317,429)"></path>
<path d="M0 0 C1.5 1 1.5 1 3 3 C3.63772451 7.43634442 3.51756835 10.22364747 1 14 C-1.01696222 10.97455666 -1.25811096 10.38932618 -1.1875 7 C-1.18105469 6.319375 -1.17460938 5.63875 -1.16796875 4.9375 C-1 3 -1 3 0 0 Z " fill="#EFEFF0" transform="translate(717,254)"></path>
<path d="M0 0 C0.66 0.33 1.32 0.66 2 1 C-0.97 5.29 -3.94 9.58 -7 14 C-7.33 13.34 -7.66 12.68 -8 12 C-8.66 11.67 -9.32 11.34 -10 11 C-6.79239749 7.19364503 -3.59253891 3.45436433 0 0 Z " fill="#D8D8D7" transform="translate(613,553)"></path>
<path d="M0 0 C3.2826932 1.49076434 5.93077441 3.38620321 8.75 5.625 C9.94882812 6.57246094 9.94882812 6.57246094 11.171875 7.5390625 C11.77515625 8.02117188 12.3784375 8.50328125 13 9 C12.01 9.99 11.02 10.98 10 12 C8.33032474 10.19019128 6.66417692 8.3773524 5 6.5625 C4.28457031 5.7880957 4.28457031 5.7880957 3.5546875 4.99804688 C0 1.11328125 0 1.11328125 0 0 Z " fill="#DBDBDC" transform="translate(466,692)"></path>
<path d="M0 0 C0.66 0 1.32 0 2 0 C3.7265625 2.1171875 3.7265625 2.1171875 5.625 4.875 C6.25664062 5.77992188 6.88828125 6.68484375 7.5390625 7.6171875 C9 10 9 10 9 12 C5.88271632 10.63491499 3.91336262 9.13080302 1.6875 6.5625 C1.15511719 5.96566406 0.62273437 5.36882813 0.07421875 4.75390625 C-0.28027344 4.17511719 -0.63476562 3.59632813 -1 3 C-0.67 2.01 -0.34 1.02 0 0 Z " fill="#D5D6D6" transform="translate(499,666)"></path>
<path d="M0 0 C0.33 0 0.66 0 1 0 C1.05422947 1.4370809 1.09289723 2.87475462 1.125 4.3125 C1.14820313 5.11300781 1.17140625 5.91351563 1.1953125 6.73828125 C1 9 1 9 -1 12 C-1.66 11.67 -2.32 11.34 -3 11 C-2.88590407 9.54077307 -2.75834456 8.08259402 -2.625 6.625 C-2.55539062 5.81289062 -2.48578125 5.00078125 -2.4140625 4.1640625 C-2 2 -2 2 0 0 Z " fill="#EFF1F1" transform="translate(722,236)"></path>
<path d="M0 0 C0.99 0.33 1.98 0.66 3 1 C3.6875 3.8125 3.6875 3.8125 4 7 C2.5625 8.875 2.5625 8.875 1 10 C-0.60725635 6.78548731 -0.05748185 3.56387464 0 0 Z " fill="#F0F0F1" transform="translate(304,251)"></path>
<path d="M0 0 C1.0828125 0.37125 1.0828125 0.37125 2.1875 0.75 C2.1875 1.41 2.1875 2.07 2.1875 2.75 C-4.4375 5.75 -4.4375 5.75 -7.8125 5.75 C-7.8125 3.75 -7.8125 3.75 -5.625 1.5625 C-2.8125 -0.25 -2.8125 -0.25 0 0 Z " fill="#DEDEDB" transform="translate(684.8125,520.25)"></path>
<path d="M0 0 C0.66 0.33 1.32 0.66 2 1 C-0.64 3.97 -3.28 6.94 -6 10 C-6.33 9.34 -6.66 8.68 -7 8 C-7.66 7.67 -8.32 7.34 -9 7 C-6.03 4.69 -3.06 2.38 0 0 Z " fill="#D8D9DA" transform="translate(557,693)"></path>
<path d="M0 0 C1.15224028 0.92961422 2.29659176 1.8690125 3.4375 2.8125 C4.07558594 3.33457031 4.71367187 3.85664062 5.37109375 4.39453125 C7 6 7 6 8 9 C7.01 9.33 6.02 9.66 5 10 C4.16121545 8.71186658 3.32913217 7.41936744 2.5 6.125 C2.0359375 5.40570312 1.571875 4.68640625 1.09375 3.9453125 C0 2 0 2 0 0 Z " fill="#D4D2D3" transform="translate(413,554)"></path>
<path d="M0 0 C0.66 0 1.32 0 2 0 C2.33 2.97 2.66 5.94 3 9 C1.68 8.01 0.36 7.02 -1 6 C-1.33 6.99 -1.66 7.98 -2 9 C-2.20140476 5.37471432 -1.85776765 3.13498292 0 0 Z " fill="#D4D5D6" transform="translate(305,245)"></path>
<path d="M0 0 C2.5 1.25 2.5 1.25 4.5 4.25 C1.37709365 3.76421457 -1.49580359 3.2513988 -4.5 2.25 C-4.5 1.59 -4.5 0.93 -4.5 0.25 C-2.5 -0.75 -2.5 -0.75 0 0 Z " fill="#D0D1D1" transform="translate(344.5,521.75)"></path>
<path d="M0 0 C0.33 1.32 0.66 2.64 1 4 C1.66 4 2.32 4 3 4 C2.67 6.31 2.34 8.62 2 11 C1.01 10.34 0.02 9.68 -1 9 C-0.67 6.03 -0.34 3.06 0 0 Z " fill="#CFCFD1" transform="translate(722,223)"></path>
<path d="M0 0 C2.25245881 2.68841859 3.88213958 4.64641875 5 8 C2.50638429 6.79618552 0.31856917 5.54571278 -2 4 C-2 3.34 -2 2.68 -2 2 C-1.34 2 -0.68 2 0 2 C0 1.34 0 0.68 0 0 Z " fill="#C9C9C9" transform="translate(385,516)"></path>
<path d="M0 0 C3.24299151 2.38957269 5.50902342 4.2047869 7 8 C5.68 8 4.36 8 3 8 C0 2.25 0 2.25 0 0 Z " fill="#D6D5D7" transform="translate(708,429)"></path>
<path d="M0 0 C0.99 0.33 1.98 0.66 3 1 C2.04956626 2.33897583 1.08940853 3.67105427 0.125 5 C-0.40867187 5.7425 -0.94234375 6.485 -1.4921875 7.25 C-2.23855469 8.11625 -2.23855469 8.11625 -3 9 C-3.66 9 -4.32 9 -5 9 C-3.7508258 5.54074837 -2.32472205 2.85306797 0 0 Z " fill="#D6D7D7" transform="translate(627,375)"></path>
<path d="M0 0 C0.99 0.33 1.98 0.66 3 1 C0.69 3.31 -1.62 5.62 -4 8 C-4.66 7.67 -5.32 7.34 -6 7 C-4.02 4.69 -2.04 2.38 0 0 Z " fill="#DCDBDD" transform="translate(674,312)"></path>
<path d="M0 0 C0.66 1.32 1.32 2.64 2 4 C2.66 3.34 3.32 2.68 4 2 C3.67 3.98 3.34 5.96 3 8 C2.01 8.33 1.02 8.66 0 9 C0 6.03 0 3.06 0 0 Z " fill="#BEBEC0" transform="translate(671,383)"></path>
<path d="M0 0 C0 0.33 0 0.66 0 1 C-5.94 1.495 -5.94 1.495 -12 2 C-11 0 -11 0 -9.375 -0.6875 C-6.12574921 -1.115033 -3.21226196 -0.55596842 0 0 Z " fill="#AEAEB0" transform="translate(485,376)"></path>
<path d="M0 0 C0.66 1.32 1.32 2.64 2 4 C0.35 5.98 -1.3 7.96 -3 10 C-3.33 9.34 -3.66 8.68 -4 8 C-3.22265625 6.0546875 -3.22265625 6.0546875 -2.0625 3.875 C-1.49208984 2.78832031 -1.49208984 2.78832031 -0.91015625 1.6796875 C-0.60980469 1.12539063 -0.30945313 0.57109375 0 0 Z " fill="#DBDCDD" transform="translate(574,667)"></path>
<path d="M0 0 C0.99 0.33 1.98 0.66 3 1 C3.33 2.98 3.66 4.96 4 7 C3.01 7 2.02 7 1 7 C-0.0625 4.625 -0.0625 4.625 -1 2 C-0.67 1.34 -0.34 0.68 0 0 Z " fill="#E8E8EA" transform="translate(438,648)"></path>
<path d="M0 0 C0 3 0 3 -1.3125 4.38671875 C-2.875 5.59114583 -4.4375 6.79557292 -6 8 C-6 5 -6 5 -4.6875 3.61328125 C-3.125 2.40885417 -1.5625 1.20442708 0 0 Z " fill="#19171B" transform="translate(667,499)"></path>
<path d="M0 0 C0.33 0.66 0.66 1.32 1 2 C0.06553465 4.03144641 -0.93224776 6.03533587 -2 8 C-3.32 7.34 -4.64 6.68 -6 6 C-4.02 4.02 -2.04 2.04 0 0 Z " fill="#D9DBDC" transform="translate(317,429)"></path>
<path d="M0 0 C-0.99 1.485 -0.99 1.485 -2 3 C-3.9453125 3.29296875 -3.9453125 3.29296875 -6.125 3.1875 C-7.40375 3.125625 -8.6825 3.06375 -10 3 C-8.0130571 -0.97388579 -3.91761109 -0.08705802 0 0 Z " fill="#F8F8F8" transform="translate(502,372)"></path>
<path d="M0 0 C0 3.51716303 -0.82445585 4.37121748 -3 7 C-3.99 6.67 -4.98 6.34 -6 6 C-4 4 -2 2 0 0 Z " fill="#EDEEED" transform="translate(634,368)"></path>
<path d="M0 0 C0.33 1.32 0.66 2.64 1 4 C-0.4375 6.25 -0.4375 6.25 -2 8 C-2.99 7.67 -3.98 7.34 -5 7 C-3.35 4.69 -1.7 2.38 0 0 Z " fill="#1B1B20" transform="translate(618,607)"></path>
<path d="M0 0 C1.98 0 3.96 0 6 0 C6.33 0.99 6.66 1.98 7 3 C4.69 3 2.38 3 0 3 C0 2.01 0 1.02 0 0 Z " fill="#F2F2F2" transform="translate(593,463)"></path>
<path d="M0 0 C1.10844919 3.32534757 0.84454356 5.62182575 0 9 C-0.99 9.33 -1.98 9.66 -3 10 C-2.49287967 6.28111761 -1.88391785 3.26545761 0 0 Z " fill="#DEDFDF" transform="translate(308,255)"></path>
<path d="M0 0 C3.93846154 4.30769231 3.93846154 4.30769231 4.25 7.8125 C4.1675 8.534375 4.085 9.25625 4 10 C2 8.375 2 8.375 0 6 C-0.25 2.75 -0.25 2.75 0 0 Z " fill="#D2D4D4" transform="translate(718,243)"></path>
<path d="M0 0 C0.99 0.33 1.98 0.66 3 1 C1.35 2.98 -0.3 4.96 -2 7 C-2.33 6.34 -2.66 5.68 -3 5 C-1.5625 2.375 -1.5625 2.375 0 0 Z " fill="#D9D9DB" transform="translate(521,671)"></path>
<path d="M0 0 C2.475 0.495 2.475 0.495 5 1 C4.34 2.65 3.68 4.3 3 6 C0 2.25 0 2.25 0 0 Z " fill="#E0E0DF" transform="translate(712,437)"></path>
</svg>